<svg width="160" height="160" viewBox="0 0 160 160" fill="none" xmlns="http://www.w3.org/2000/svg">
<path d="M35.7496 119.903C35.6554 119.903 35.5651 119.866 35.4986 119.799C35.432 119.733 35.3946 119.642 35.3946 119.548V113.585C35.3946 113.491 35.432 113.401 35.4986 113.334C35.5651 113.268 35.6554 113.23 35.7496 113.23C35.8437 113.23 35.934 113.268 36.0005 113.334C36.0671 113.401 36.1045 113.491 36.1045 113.585V119.548C36.1045 119.642 36.0671 119.733 36.0005 119.799C35.934 119.866 35.8437 119.903 35.7496 119.903Z" fill="#212529"/>
<path d="M51.3316 68.969C43.097 71.8973 41.3577 56.2621 48.9712 58.8C56.5847 61.3378 53.3548 47.6726 53.3548 47.6726C44.6942 18.0882 71.2971 12.4446 71.2971 12.4446C71.2971 12.4446 74.1188 10.7054 78.0232 16.1005C78.0232 16.1005 86.3111 12.5334 92.0789 23.1816C97.8467 33.8298 91.2093 50.3701 94.2263 55.2151C97.4917 60.4149 100.615 54.7714 102.55 59.5098C104.182 63.5029 96.2139 68.0284 94.2263 68.0817L51.3316 68.969Z" fill="#212529"/>
<path d="M49.3262 69.6966C47.2498 69.6966 45.9543 68.4543 45.2799 67.567C43.5052 65.2066 43.2212 61.533 44.6587 59.5453C45.6171 58.2143 47.1788 57.8238 49.0778 58.4627C50.4975 58.9242 51.5978 58.8354 52.3432 58.1433C54.8278 55.8717 53.0709 48.063 52.9999 47.7613C50.2491 38.3021 50.7637 30.2804 54.5616 23.9269C59.9745 14.8759 70.3388 12.3026 71.1729 12.1074C71.6165 11.8767 74.4383 10.6876 78.1475 15.6746C79.6929 15.174 81.3349 15.0462 82.9392 15.3019C85.5835 15.7101 89.3459 17.3783 92.3984 23.0041C95.8058 29.3043 94.9362 37.6454 94.2441 44.3361C93.7471 49.039 93.339 53.1031 94.528 55.0198C96.0897 57.5221 97.5628 57.3447 98.9648 57.1672C100.367 56.9897 101.84 56.83 102.887 59.3856C103.348 60.5214 103.153 61.7637 102.301 63.077C100.438 65.9343 95.8235 68.4011 94.2441 68.4366L51.4026 69.3239C50.7364 69.5643 50.0344 69.6903 49.3262 69.6966ZM47.4095 58.8709C46.9865 58.8535 46.566 58.9436 46.1874 59.133C45.8087 59.3223 45.4842 59.6046 45.2444 59.9535C44.0021 61.6927 44.2861 65.0469 45.8478 67.1411C46.6109 68.1349 48.3146 69.6789 51.2252 68.6318H51.3316L94.2263 67.7445C95.4686 67.709 99.8876 65.5083 101.698 62.722C102.425 61.604 102.603 60.5924 102.23 59.6695C101.396 57.6286 100.402 57.7351 99.0535 57.8948C97.7047 58.0546 95.7171 58.2853 93.9246 55.4102C92.5936 53.2983 93.0373 49.1278 93.5342 44.2828C94.2263 37.6809 95.0782 29.464 91.7772 23.359C89.4701 19.1175 86.3821 16.5797 82.8327 16.0118C80.1706 15.6036 78.183 16.4377 78.1652 16.4554L77.899 16.5619L77.7393 16.3312C74.0656 11.2555 71.5101 12.7463 71.4923 12.764L71.4391 12.7995H71.3858C71.2793 12.835 60.6134 15.1954 55.165 24.3174C51.4736 30.4934 50.9767 38.3376 53.692 47.6015C53.7807 47.9387 55.6619 56.0846 52.8224 58.6757C51.8818 59.5453 50.533 59.6873 48.8471 59.1371C48.386 58.9692 47.9002 58.8792 47.4095 58.8709Z" fill="#212529"/>
<path d="M88.3167 32.6763H88.2102C78.5025 29.9078 71.5102 21.5667 71.4392 21.4779C71.378 21.405 71.3483 21.3107 71.3566 21.2158C71.3649 21.121 71.4106 21.0333 71.4836 20.9721C71.5565 20.9109 71.6508 20.8812 71.7457 20.8896C71.8405 20.8979 71.9282 20.9435 71.9894 21.0165C72.0603 21.1052 78.9107 29.2866 88.4054 31.9842C88.4512 31.9964 88.494 32.0178 88.5314 32.0469C88.5689 32.076 88.6001 32.1123 88.6232 32.1536C88.6464 32.195 88.661 32.2405 88.6663 32.2876C88.6715 32.3347 88.6673 32.3824 88.6539 32.4279C88.6339 32.5012 88.5897 32.5657 88.5285 32.6108C88.4673 32.6559 88.3926 32.679 88.3167 32.6763Z" fill="#212529"/>
<path d="M84.306 43.644H84.2172C84.1705 43.6395 84.1252 43.6259 84.0838 43.6038C84.0424 43.5817 84.0058 43.5517 83.9761 43.5154C83.9464 43.4791 83.9242 43.4372 83.9107 43.3923C83.8973 43.3474 83.8929 43.3002 83.8978 43.2535C83.8999 43.2076 83.9115 43.1626 83.9317 43.1213C83.9518 43.08 83.9803 43.0433 84.0152 43.0134C84.0501 42.9834 84.0907 42.961 84.1346 42.9473C84.1785 42.9337 84.2248 42.9292 84.2705 42.9341C84.3947 42.9341 87.3585 43.1116 87.8909 38.2666C88.1926 35.6046 87.4472 34.8059 86.7373 34.0428C86.0274 33.2797 85.353 32.5698 85.5483 30.5644C85.5577 30.4702 85.6041 30.3837 85.6773 30.3238C85.7505 30.2639 85.8446 30.2355 85.9387 30.2449C86.0328 30.2543 86.1194 30.3008 86.1793 30.374C86.2392 30.4472 86.2676 30.5412 86.2581 30.6354C86.0984 32.3213 86.6308 32.8893 87.252 33.5636C87.8731 34.238 88.9202 35.3561 88.6008 38.3553C88.0329 43.3955 84.8916 43.644 84.306 43.644Z" fill="#212529"/>
<path d="M80.0464 33.1199H79.9932L75.9646 32.765C75.8453 32.7516 75.7359 32.6921 75.6597 32.5994C75.5835 32.5066 75.5464 32.3877 75.5564 32.2681C75.5608 32.2104 75.5768 32.1542 75.6036 32.103C75.6303 32.0517 75.6673 32.0064 75.7121 31.9699C75.7569 31.9333 75.8087 31.9063 75.8643 31.8905C75.92 31.8746 75.9782 31.8702 76.0356 31.8776L80.0819 32.2326C80.1402 32.2371 80.1971 32.253 80.2493 32.2796C80.3014 32.3061 80.3478 32.3427 80.3857 32.3872C80.4236 32.4318 80.4524 32.4834 80.4703 32.5391C80.4882 32.5948 80.495 32.6534 80.4901 32.7118C80.4741 32.8203 80.4212 32.9201 80.3405 32.9944C80.2597 33.0687 80.1559 33.113 80.0464 33.1199Z" fill="#212529"/>
<path d="M95.9477 119.548C94.9006 117.72 94.315 116.975 94.5457 114.881C94.8829 111.668 95.3975 106.54 95.646 101.712C98.0773 106.54 103.898 114.756 113.713 109.61C115.718 108.563 113.482 76.4937 86.4708 65.881L83.507 70.087C83.0313 70.8347 82.4716 71.5254 81.8388 72.1457C70.5871 82.7939 61.6071 65.881 61.6071 65.881C34.0459 74.1334 36.495 97.0803 33.9749 109.61C32.6616 116.158 40.8963 113.443 48.8292 112.875C52.2544 112.645 52.8756 107.267 52.9288 103.043C52.9264 102.982 52.9485 102.923 52.9901 102.878C53.0317 102.833 53.0894 102.806 53.1506 102.804C53.2118 102.801 53.2714 102.823 53.3164 102.865C53.3613 102.907 53.3879 102.964 53.3902 103.026L54.3308 112.503C54.6006 115.271 54.0968 118.06 52.8756 120.56" fill="#ADB5BD"/>
<path d="M61.6071 65.881C61.6071 65.881 66.7892 68.4011 69.2738 53.4935L77.0648 52.9789C77.0648 52.9789 77.544 67.3718 86.4707 65.881C86.4707 65.881 75.2191 88.5263 61.6071 65.881Z" fill="#F8F9FA"/>
<path d="M92.6114 31.8243C92.5231 31.8248 92.4378 31.7923 92.3722 31.7332C92.3065 31.6742 92.2653 31.5927 92.2565 31.5049C91.1561 20.8744 82.2826 18.1591 82.1939 18.1413C82.1046 18.1128 82.0303 18.0501 81.9871 17.967C81.9439 17.8839 81.9353 17.7871 81.9632 17.6977C81.9734 17.6526 81.9928 17.61 82.0201 17.5727C82.0475 17.5354 82.0822 17.5042 82.1221 17.4809C82.1621 17.4576 82.2064 17.4427 82.2523 17.4373C82.2982 17.4318 82.3448 17.4359 82.3891 17.4492C82.4956 17.4847 84.7849 18.1768 87.2518 20.2355C89.7186 22.2942 92.3629 25.6306 92.9663 31.4339C92.9712 31.4806 92.9668 31.5277 92.9534 31.5727C92.94 31.6176 92.9178 31.6594 92.888 31.6957C92.8583 31.7321 92.8217 31.7621 92.7803 31.7842C92.739 31.8063 92.6936 31.8199 92.6469 31.8243H92.6114Z" fill="#F8F9FA"/>
<path d="M92.7529 39.5621C92.6588 39.5621 92.5685 39.5247 92.5019 39.4582C92.4353 39.3916 92.3979 39.3013 92.3979 39.2072V34.3267C92.3979 34.2326 92.4353 34.1423 92.5019 34.0758C92.5685 34.0092 92.6588 33.9718 92.7529 33.9718C92.847 33.9718 92.9373 34.0092 93.0039 34.0758C93.0704 34.1423 93.1078 34.2326 93.1078 34.3267V39.2072C93.1078 39.3013 93.0704 39.3916 93.0039 39.4582C92.9373 39.5247 92.847 39.5621 92.7529 39.5621Z" fill="#F8F9FA"/>
<path d="M55.2 29.8722H55.1113C55.0214 29.8434 54.9457 29.7817 54.8996 29.6993C54.8535 29.617 54.8404 29.5202 54.8628 29.4285C56.602 23.4477 61.0211 20.2 61.1985 20.0581C61.2369 20.031 61.2802 20.0118 61.3261 20.0016C61.3719 19.9914 61.4193 19.9904 61.4655 19.9987C61.5117 20.0069 61.5558 20.0243 61.5953 20.0497C61.6348 20.0751 61.6688 20.1081 61.6954 20.1468C61.7234 20.1841 61.7438 20.2265 61.7553 20.2717C61.7669 20.3168 61.7695 20.3638 61.7629 20.41C61.7563 20.4561 61.7407 20.5005 61.7169 20.5406C61.6932 20.5807 61.6617 20.6157 61.6245 20.6437C61.5712 20.6615 57.2054 23.8914 55.5372 29.6237C55.5204 29.6988 55.477 29.7653 55.415 29.8109C55.3531 29.8566 55.2767 29.8783 55.2 29.8722Z" fill="#F8F9FA"/>
<path d="M54.3841 35.7464C54.3019 35.7449 54.2226 35.7162 54.1584 35.6648C54.0942 35.6135 54.0488 35.5423 54.0292 35.4625C53.7985 34.476 53.7985 33.4496 54.0292 32.4632C54.0397 32.4178 54.059 32.3748 54.086 32.3368C54.1131 32.2988 54.1474 32.2665 54.187 32.2418C54.2265 32.2171 54.2706 32.2004 54.3166 32.1927C54.3626 32.185 54.4097 32.1865 54.4551 32.197C54.5018 32.2051 54.5463 32.223 54.5856 32.2494C54.6249 32.2759 54.6582 32.3103 54.6834 32.3505C54.7085 32.3907 54.7248 32.4357 54.7314 32.4827C54.7379 32.5296 54.7345 32.5774 54.7213 32.6229C54.5263 33.5056 54.5263 34.4201 54.7213 35.3027C54.7345 35.3483 54.7379 35.3961 54.7314 35.443C54.7248 35.4899 54.7085 35.535 54.6834 35.5752C54.6582 35.6154 54.6249 35.6498 54.5856 35.6763C54.5463 35.7027 54.5018 35.7206 54.4551 35.7287L54.3841 35.7464Z" fill="#F8F9FA"/>
<path d="M123.811 86.2546C128.815 120.773 115.15 123.08 106.614 116.46C102.443 113.23 99.5683 108.296 98.8229 106.504C98.7889 106.429 98.7713 106.347 98.771 106.265C98.7708 106.182 98.788 106.101 98.8215 106.025C98.855 105.95 98.9041 105.882 98.9655 105.827C99.0269 105.772 99.0993 105.731 99.1778 105.705C100.917 105.12 105.975 103.239 107.874 100.594" fill="#F8F9FA"/>
<path d="M114.245 119.779C111.707 119.779 108.974 118.75 106.383 116.744C101.964 113.301 99.1242 108.172 98.4853 106.646C98.3932 106.399 98.3996 106.126 98.5031 105.883C98.5561 105.765 98.632 105.659 98.7265 105.57C98.8209 105.482 98.932 105.413 99.0532 105.368C100.597 104.854 105.726 102.972 107.572 100.381C107.628 100.306 107.712 100.256 107.806 100.243C107.899 100.23 107.993 100.254 108.069 100.31C108.107 100.337 108.14 100.371 108.166 100.41C108.191 100.45 108.209 100.494 108.217 100.54C108.225 100.586 108.224 100.634 108.214 100.68C108.204 100.726 108.185 100.769 108.157 100.807C106.241 103.487 101.307 105.368 99.2839 106.043C99.2239 106.075 99.1746 106.125 99.142 106.185C99.1242 106.242 99.1242 106.304 99.142 106.362C99.9228 108.225 102.833 113.088 106.826 116.176C110.82 119.264 114.972 119.885 118.185 118.022C121.397 116.158 126.792 109.273 123.455 86.2901C123.448 86.2444 123.45 86.1977 123.461 86.1528C123.473 86.108 123.493 86.0659 123.521 86.0293C123.55 85.9926 123.585 85.9622 123.626 85.9399C123.666 85.9177 123.711 85.9039 123.757 85.8997C123.804 85.8921 123.852 85.894 123.897 85.9052C123.943 85.9163 123.987 85.9365 124.025 85.9646C124.063 85.9927 124.095 86.0282 124.119 86.0688C124.143 86.1095 124.159 86.1545 124.165 86.2014C125.514 95.5363 125.603 103.132 124.396 108.758C123.349 113.656 121.379 116.975 118.54 118.643C117.23 119.386 115.75 119.778 114.245 119.779Z" fill="#212529"/>
<path d="M137.547 119.424H22.4748V120.134H137.547V119.424Z" fill="#212529"/>
<path d="M123.171 87.3728C123.171 87.3728 128.904 75.145 123.171 74.7546C123.171 74.7546 125.07 68.9335 119.906 69.6789C119.906 69.6789 119.853 61.4443 111.742 63.4852C111.742 63.4852 110.926 67.993 106.862 65.3841C106.862 65.3841 103.241 59.8825 102.407 65.1179C102.248 66.0763 106.879 69.8564 107.696 71.3649C109.861 75.3935 111.369 83.0957 110.855 91.1351C110.642 94.5781 110.358 98.9438 110.429 102.6L123.171 87.3728Z" fill="#F8F9FA"/>
<path d="M112.896 63.0237C115.789 61.7636 114.334 68.8092 111.299 71.0986C111.141 71.2176 110.959 71.3 110.766 71.3399C110.573 71.3798 110.373 71.3762 110.181 71.3293C109.453 71.1341 108.246 69.7498 109.01 67.6202" fill="#F8F9FA"/>
<path d="M110.501 71.7199C110.363 71.7209 110.225 71.703 110.092 71.6666C109.613 71.5424 109.099 71.081 108.779 70.4776C108.46 69.8742 108.282 68.5786 108.673 67.5138C108.68 67.4618 108.699 67.412 108.728 67.3682C108.756 67.3243 108.795 67.2873 108.84 67.26C108.884 67.2327 108.935 67.2157 108.987 67.2103C109.039 67.2048 109.092 67.211 109.142 67.2284C109.191 67.2458 109.236 67.274 109.274 67.311C109.311 67.3479 109.34 67.3927 109.358 67.4421C109.376 67.4914 109.382 67.5442 109.377 67.5965C109.373 67.6488 109.356 67.6994 109.329 67.7445C108.939 68.8626 109.152 69.679 109.4 70.1581C109.649 70.6373 110.021 70.9213 110.27 70.9745C110.409 71.0097 110.555 71.0136 110.696 70.986C110.837 70.9583 110.97 70.8999 111.086 70.8148C113.358 69.0933 114.636 64.692 113.908 63.4675C113.837 63.361 113.677 63.0771 113.038 63.3433C112.957 63.3634 112.872 63.3544 112.797 63.3178C112.722 63.2812 112.662 63.2193 112.628 63.143C112.594 63.0667 112.588 62.9809 112.611 62.9007C112.635 62.8205 112.685 62.751 112.754 62.7044C113.855 62.2252 114.369 62.8286 114.529 63.1126C115.47 64.7275 113.979 69.5192 111.512 71.3827C111.222 71.6039 110.866 71.7225 110.501 71.7199Z" fill="#212529"/>
<path d="M117.049 66.378C121.308 64.834 117.688 74.5948 113.748 75.6597C113.748 75.6597 111.76 75.8726 111.814 73.5655" fill="#F8F9FA"/>
<path d="M113.623 76.0145C113.077 76.0298 112.546 75.8399 112.133 75.4821C111.671 75.0562 111.441 74.3995 111.458 73.5654C111.458 73.4713 111.496 73.381 111.562 73.3144C111.629 73.2479 111.719 73.2105 111.813 73.2105H111.831C111.924 73.2193 112.01 73.2625 112.072 73.3314C112.134 73.4004 112.169 73.4902 112.168 73.5832C112.15 74.2043 112.31 74.6657 112.612 74.9497C112.909 75.199 113.29 75.3259 113.677 75.3046C115.735 74.719 117.83 71.4713 118.451 68.8802C118.699 67.8331 118.646 67.0168 118.309 66.7151C117.972 66.4134 117.528 66.5731 117.155 66.7151C117.066 66.7457 116.968 66.7395 116.883 66.6979C116.798 66.6563 116.733 66.5826 116.703 66.4932C116.672 66.4038 116.678 66.3059 116.72 66.221C116.761 66.1361 116.835 66.0713 116.924 66.0407C117.723 65.7567 118.344 65.81 118.788 66.1826C119.232 66.5553 119.462 67.6734 119.143 69.0399C118.557 71.5245 116.392 75.3046 113.836 75.9968H113.623V76.0145Z" fill="#212529"/>
<path d="M121.006 70.5485C125.035 69.7676 122.248 79.3333 116.232 79.777C116.232 79.777 113.57 79.8657 113.872 77.4343" fill="#F8F9FA"/>
<path d="M116.215 80.1319C115.949 80.1319 114.742 80.0786 114.032 79.2977C113.588 78.8186 113.429 78.1797 113.517 77.3988C113.522 77.3521 113.536 77.3068 113.558 77.2654C113.58 77.224 113.61 77.1874 113.646 77.1577C113.682 77.128 113.724 77.1057 113.769 77.0923C113.814 77.0789 113.861 77.0745 113.908 77.0794C114.002 77.0965 114.086 77.1476 114.145 77.2228C114.204 77.298 114.233 77.3922 114.227 77.4876C114.156 78.0555 114.263 78.4991 114.547 78.8186C115.115 79.4397 116.215 79.422 116.215 79.422C119.072 79.209 121.095 76.7954 121.965 74.79C122.622 73.2637 122.728 71.8262 122.231 71.1873C121.983 70.8856 121.592 70.7969 121.06 70.9034C120.968 70.919 120.874 70.8979 120.798 70.8448C120.722 70.7917 120.669 70.7108 120.652 70.6194C120.636 70.5256 120.656 70.4292 120.709 70.35C120.762 70.2708 120.843 70.2148 120.936 70.1935C121.93 69.9983 122.497 70.3887 122.781 70.7437C123.474 71.5955 123.403 73.2637 122.622 75.0739C121.628 77.3633 119.427 79.9012 116.251 80.1319H116.215Z" fill="#212529"/>
<path d="M111.228 64.9404L102.212 52.9789L98.5742 56.7413L108.761 67.3895C108.846 67.4731 108.951 67.5334 109.066 67.5645C109.181 67.5956 109.302 67.5964 109.418 67.567C109.897 67.425 110.731 66.9991 111.317 65.597C111.36 65.4892 111.374 65.3721 111.358 65.2571C111.343 65.142 111.298 65.033 111.228 64.9404Z" fill="#F8F9FA"/>
<path d="M109.24 67.9398C109.103 67.9405 108.967 67.9125 108.842 67.8574C108.717 67.8024 108.604 67.7216 108.512 67.6203L98.0945 56.7414L102.247 52.4288L111.511 64.7276C111.619 64.8665 111.689 65.0313 111.714 65.2056C111.739 65.3799 111.718 65.5577 111.653 65.7214C110.997 67.3009 110.021 67.7623 109.506 67.9043C109.42 67.9334 109.33 67.9454 109.24 67.9398ZM99.0706 56.7414L109.027 67.1412C109.064 67.1767 109.109 67.2031 109.158 67.2185C109.208 67.2339 109.26 67.2378 109.311 67.2299C109.719 67.1234 110.446 66.7507 110.997 65.4552C111.016 65.4047 111.021 65.3501 111.011 65.2971C111.002 65.244 110.978 65.1944 110.943 65.1535L102.176 53.5114L99.0706 56.7414Z" fill="#212529"/>
<path d="M59.1405 35.0899C57.2416 36.3144 56.6382 37.0421 56.8867 39.2959C57.0464 40.6092 58.0757 42.8986 59.1405 43.6795C60.2054 44.4603 60.9862 44.4426 61.4122 44.8508C62.4238 45.8269 62.477 46.8739 62.6012 47.9388C62.9207 50.6008 65.3875 52.269 67.6946 53.6533C71.3683 55.854 76.4972 55.2506 79.5674 52.269C81.3066 50.5831 82.8151 48.5244 83.454 46.1818C84.2349 43.289 87.1454 41.0706 87.2164 40.9642C87.9973 39.5976 88.3522 38.5151 88.1747 36.9356C87.944 34.8769 85.0335 33.1022 83.3653 31.8777C79.4964 29.0026 76.5327 25.9856 72.9123 22.4185C72.7784 22.2894 72.6183 22.1906 72.4429 22.1289C72.2675 22.0671 72.0808 22.0439 71.8956 22.0607C71.7104 22.0776 71.531 22.1341 71.3695 22.2264C71.2081 22.3188 71.0685 22.4448 70.9601 22.5959C68.3868 26.1276 68.1383 29.0026 61.4122 32.907" fill="#F8F9FA"/>
<path d="M72.5391 55.2505H72.4326C66.7535 55.1972 63.9673 51.7543 62.6185 48.8793C61.72 46.9038 61.1907 44.7806 61.0567 42.6146C61.0543 42.5688 61.0613 42.5231 61.0771 42.4801C61.093 42.4371 61.1174 42.3978 61.149 42.3646C61.1806 42.3314 61.2185 42.3049 61.2607 42.2869C61.3028 42.2688 61.3481 42.2596 61.3939 42.2596H61.4117C61.4574 42.2572 61.5032 42.2642 61.5462 42.28C61.5892 42.2959 61.6285 42.3203 61.6617 42.3519C61.6949 42.3835 61.7213 42.4214 61.7394 42.4636C61.7574 42.5057 61.7667 42.551 61.7666 42.5968C61.9082 44.6702 62.419 46.7016 63.2751 48.5953C65.1031 52.4997 68.1911 54.5051 72.4326 54.5406H72.5568C77.0646 54.5406 80.3478 52.198 82.3 47.566C83.773 44.0521 83.8795 40.4849 83.8972 40.4494C83.8868 40.3972 83.8883 40.3433 83.9015 40.2917C83.9148 40.2401 83.9395 40.1921 83.9738 40.1514C84.0081 40.1106 84.0511 40.0781 84.0997 40.0563C84.1483 40.0344 84.2011 40.0238 84.2544 40.0251C84.3076 40.0265 84.3599 40.0398 84.4073 40.0642C84.4547 40.0885 84.496 40.1231 84.5282 40.1656C84.5604 40.2081 84.5826 40.2572 84.5932 40.3094C84.6037 40.3616 84.6024 40.4155 84.5894 40.4672C84.4651 43.0025 83.913 45.4986 82.9566 47.85C80.9157 52.6949 77.3131 55.2505 72.5391 55.2505Z" fill="#212529"/>
<path d="M61.1814 44.8508C60.23 44.8471 59.3065 44.5289 58.5548 43.9457C57.4545 43.0584 56.7801 41.6386 56.5671 39.7219C56.2299 36.6872 57.1173 36.0128 57.9159 35.4094C58.7145 34.806 58.9807 34.593 58.821 32.9426C58.8156 32.8493 58.8455 32.7574 58.9046 32.6851C58.9638 32.6128 59.048 32.5653 59.1405 32.5521C59.1871 32.5472 59.2343 32.5516 59.2792 32.565C59.3242 32.5785 59.366 32.6007 59.4023 32.6304C59.4386 32.6601 59.4687 32.6967 59.4907 32.7381C59.5128 32.7795 59.5265 32.8249 59.5309 32.8716C59.7261 34.9125 58.9807 35.4804 58.3418 35.9773C57.7029 36.4742 56.9931 37.0066 57.277 39.6332C57.8094 44.4781 61.2346 44.1587 61.3766 44.141C61.4223 44.1334 61.469 44.1354 61.5139 44.1468C61.5588 44.1581 61.6008 44.1786 61.6374 44.2069C61.6741 44.2352 61.7045 44.2707 61.7268 44.3113C61.7491 44.3518 61.7628 44.3966 61.767 44.4427C61.7719 44.4893 61.7675 44.5365 61.7541 44.5814C61.7407 44.6264 61.7184 44.6682 61.6887 44.7045C61.659 44.7408 61.6224 44.7709 61.581 44.7929C61.5396 44.815 61.4943 44.8287 61.4476 44.8331L61.1814 44.8508Z" fill="#212529"/>
<path d="M66.3457 39.4201C66.777 39.4201 67.1266 38.8877 67.1266 38.231C67.1266 37.5743 66.777 37.042 66.3457 37.042C65.9145 37.042 65.5648 37.5743 65.5648 38.231C65.5648 38.8877 65.9145 39.4201 66.3457 39.4201Z" fill="#212529"/>
<path d="M64.3758 35.8352C64.2782 35.8313 64.1845 35.7965 64.1079 35.7359C64.0314 35.6754 63.9761 35.5921 63.9499 35.498C63.9338 35.4409 63.9294 35.3812 63.9369 35.3223C63.9444 35.2635 63.9636 35.2068 63.9934 35.1555C64.0232 35.1042 64.0629 35.0594 64.1103 35.0237C64.1577 34.9881 64.2118 34.9623 64.2693 34.9479L68.1914 33.9185C68.2462 33.9024 68.3036 33.8975 68.3603 33.904C68.417 33.9106 68.4718 33.9285 68.5215 33.9566C68.5712 33.9847 68.6147 34.0226 68.6494 34.0679C68.6842 34.1132 68.7095 34.165 68.7238 34.2202C68.7568 34.3332 68.7435 34.4546 68.6869 34.5578C68.6303 34.661 68.5351 34.7374 68.4221 34.7704L64.5 35.8175L64.3758 35.8352Z" fill="#212529"/>
<path d="M70.7826 44.8508H70.7649C69.984 44.7798 69.4871 44.5136 69.3096 44.0345C68.9192 43.0229 70.2502 41.5854 70.5341 41.3191C70.5981 41.2517 70.686 41.212 70.779 41.2087C70.8719 41.2054 70.9624 41.2387 71.0311 41.3014C71.0972 41.3707 71.1342 41.4629 71.1342 41.5587C71.1342 41.6546 71.0972 41.7467 71.0311 41.8161C70.5164 42.3485 69.8065 43.3601 69.984 43.786C70.1615 44.2119 70.5341 44.1232 70.8004 44.1409C70.8478 44.1407 70.8947 44.1504 70.9381 44.1695C70.9816 44.1887 71.0204 44.2167 71.0523 44.2519C71.0841 44.2871 71.1081 44.3286 71.1228 44.3737C71.1375 44.4188 71.1425 44.4665 71.1375 44.5136C71.1291 44.6032 71.0884 44.6867 71.0232 44.7487C70.958 44.8107 70.8725 44.8469 70.7826 44.8508Z" fill="#212529"/>
<path d="M91.9898 58.6579C102.174 58.6579 110.429 50.4024 110.429 40.2187C110.429 30.0351 102.174 21.7795 91.9898 21.7795C81.8061 21.7795 73.5506 30.0351 73.5506 40.2187C73.5506 50.4024 81.8061 58.6579 91.9898 58.6579Z" fill="#F8F9FA"/>
<path d="M91.9899 59.0306C81.6256 59.0306 73.1958 50.583 73.1958 40.2187C73.1958 35.2342 75.1759 30.4538 78.7004 26.9292C82.225 23.4047 87.0054 21.4246 91.9899 21.4246C96.9744 21.4246 101.755 23.4047 105.279 26.9292C108.804 30.4538 110.784 35.2342 110.784 40.2187C110.784 50.583 102.354 59.0306 91.9899 59.0306ZM91.9899 22.1344C87.1951 22.1391 82.598 24.046 79.2076 27.4364C75.8172 30.8268 73.9104 35.4239 73.9057 40.2187C73.9057 50.1926 82.0161 58.3207 91.9899 58.3207C101.964 58.3207 110.074 50.1926 110.074 40.2187C110.069 35.4239 108.163 30.8268 104.772 27.4364C101.382 24.046 96.7847 22.1391 91.9899 22.1344Z" fill="#212529"/>
<path d="M91.9902 55.4813C100.233 55.4813 106.916 48.799 106.916 40.556C106.916 32.313 100.233 25.6307 91.9902 25.6307C83.7472 25.6307 77.0649 32.313 77.0649 40.556C77.0649 48.799 83.7472 55.4813 91.9902 55.4813Z" fill="#F8F9FA"/>
<path d="M91.9899 55.8362C88.9677 55.8362 86.0135 54.94 83.5007 53.261C80.9878 51.582 79.0293 49.1956 77.8728 46.4035C76.7163 43.6114 76.4137 40.539 77.0033 37.575C77.5929 34.6109 79.0482 31.8882 81.1851 29.7512C83.3221 27.6143 86.0448 26.159 89.0089 25.5694C91.9729 24.9798 95.0453 25.2824 97.8374 26.4389C100.629 27.5954 103.016 29.5539 104.695 32.0668C106.374 34.5796 107.27 37.5338 107.27 40.556C107.265 44.6071 105.654 48.491 102.789 51.3556C99.9249 54.2201 96.041 55.8315 91.9899 55.8362ZM91.9899 25.9856C89.1081 25.9856 86.2911 26.8402 83.895 28.4412C81.499 30.0422 79.6314 32.3178 78.5286 34.9802C77.4259 37.6425 77.1373 40.5722 77.6995 43.3985C78.2617 46.2249 79.6494 48.8211 81.6871 50.8588C83.7248 52.8965 86.321 54.2842 89.1474 54.8464C91.9737 55.4086 94.9033 55.12 97.5657 54.0172C100.228 52.9144 102.504 51.0469 104.105 48.6508C105.706 46.2548 106.56 43.4377 106.56 40.556C106.556 36.6931 105.019 32.9898 102.287 30.2584C99.556 27.5269 95.8527 25.9903 91.9899 25.9856Z" fill="#212529"/>
<path d="M80.5251 39.4557C81.3974 39.4557 82.1046 38.3751 82.1046 37.0421C82.1046 35.7091 81.3974 34.6285 80.5251 34.6285C79.6528 34.6285 78.9456 35.7091 78.9456 37.0421C78.9456 38.3751 79.6528 39.4557 80.5251 39.4557Z" fill="#212529"/>
<path d="M85.1393 53.8307C85.1393 53.8307 95.4326 41.9402 88.6355 26.0033L85.1393 53.8307Z" fill="#F8F9FA"/>
<path d="M85.1396 54.1856C85.0548 54.1832 84.9734 54.1519 84.9089 54.0969C84.8389 54.0353 84.7959 53.9487 84.7893 53.8557C84.7827 53.7627 84.8129 53.6709 84.8734 53.6C84.8911 53.5645 87.4289 50.6007 89.1149 45.738C90.6589 41.2835 91.777 34.2557 88.3163 26.1453C88.2801 26.0604 88.2784 25.9647 88.3115 25.8786C88.3446 25.7924 88.41 25.7226 88.4938 25.6838C88.5367 25.6631 88.5834 25.6513 88.6311 25.6491C88.6787 25.6468 88.7263 25.6542 88.7711 25.6708C88.8158 25.6873 88.8567 25.7128 88.8914 25.7455C88.9261 25.7782 88.9538 25.8176 88.9729 25.8613C92.5224 34.2024 91.3688 41.4255 89.7716 46.0042C88.0501 50.9734 85.5123 53.9372 85.4058 54.0614C85.3721 54.0991 85.3312 54.1295 85.2854 54.1508C85.2397 54.1722 85.1901 54.184 85.1396 54.1856Z" fill="#212529"/>
<path d="M48.8286 112.875C48.8286 112.875 49.0948 118.288 48.8286 119.779V112.875Z" fill="#F8F9FA"/>
<path d="M48.8297 120.134H48.7764C48.6836 120.113 48.6025 120.057 48.5497 119.977C48.4969 119.898 48.4764 119.802 48.4925 119.708C48.7409 118.27 48.4925 112.946 48.4747 112.893C48.4723 112.847 48.4792 112.802 48.4951 112.759C48.511 112.716 48.5354 112.676 48.567 112.643C48.5985 112.61 48.6365 112.583 48.6786 112.565C48.7207 112.547 48.7661 112.538 48.8119 112.538C48.8591 112.533 48.9068 112.538 48.9519 112.553C48.997 112.568 49.0385 112.592 49.0736 112.623C49.1088 112.655 49.1369 112.694 49.156 112.738C49.1751 112.781 49.1849 112.828 49.1846 112.875C49.2023 113.088 49.4508 118.324 49.1846 119.832C49.1718 119.917 49.1288 119.994 49.0635 120.049C48.9983 120.105 48.9153 120.135 48.8297 120.134Z" fill="#212529"/>
<path d="M69.5222 51.4527C68.83 51.4527 68.2621 50.7606 68.2621 49.9264C68.2621 49.0923 68.83 48.3824 69.5222 48.3824C70.2143 48.3824 70.7822 49.0746 70.7822 49.9264C70.7822 50.7783 70.2143 51.4527 69.5222 51.4527ZM69.5222 49.0923C69.2205 49.0923 68.972 49.4828 68.972 49.9264C68.972 50.3701 69.2205 50.7428 69.5222 50.7428C69.8239 50.7428 70.0723 50.3701 70.0723 49.9264C70.0723 49.4828 69.8239 49.0923 69.5222 49.0923Z" fill="#212529"/>
<path d="M118.362 83.9653C118.077 83.9593 117.793 83.9356 117.51 83.8943C115.966 83.6636 114.99 83.2377 114.6 82.6343C114.522 82.525 114.469 82.4001 114.445 82.2684C114.42 82.1366 114.425 82.001 114.458 81.8711L115.132 82.0664C115.131 82.1088 115.138 82.151 115.153 82.1907C115.169 82.2303 115.192 82.2664 115.221 82.2971C115.399 82.5455 115.931 82.9715 117.599 83.2022L118.345 83.2554C121.486 83.2554 123.935 80.3981 124.538 78.7832C124.685 78.3901 124.715 77.9628 124.624 77.5532C124.532 77.1436 124.324 76.7693 124.024 76.476C123.988 76.4457 123.959 76.4083 123.939 76.3662C123.918 76.3241 123.907 76.2782 123.905 76.2315C123.904 76.1848 123.912 76.1382 123.929 76.0947C123.946 76.0513 123.973 76.0119 124.006 75.9791C124.067 75.9091 124.154 75.8662 124.247 75.8595C124.34 75.8529 124.432 75.8831 124.503 75.9436C124.556 75.9969 125.887 77.2214 125.195 79.0316C124.503 80.8418 121.876 83.9653 118.362 83.9653Z" fill="#212529"/>
<path d="M123.42 86.6629C123.279 86.6692 123.138 86.6386 123.012 86.5741C122.97 86.5534 122.932 86.5245 122.901 86.4891C122.871 86.4537 122.847 86.4125 122.832 86.3679C122.817 86.3233 122.811 86.2763 122.815 86.2294C122.818 86.1825 122.831 86.1368 122.852 86.0949C122.873 86.0525 122.902 86.0148 122.938 85.9843C122.974 85.9538 123.015 85.9311 123.06 85.9177C123.106 85.9044 123.153 85.9006 123.2 85.9067C123.246 85.9127 123.291 85.9285 123.332 85.953C123.508 85.9698 123.686 85.9392 123.846 85.8642C124.645 85.527 125.568 84.6929 125.656 84.4267C125.675 84.3763 125.68 84.3217 125.671 84.2686C125.662 84.2156 125.638 84.166 125.603 84.125L123.474 81.0193C123.447 80.9823 123.428 80.9404 123.418 80.896C123.408 80.8515 123.407 80.8055 123.416 80.7608C123.424 80.716 123.441 80.6733 123.466 80.6354C123.492 80.5975 123.524 80.5651 123.562 80.5401C123.601 80.5131 123.644 80.4939 123.69 80.4837C123.736 80.4735 123.783 80.4725 123.829 80.4807C123.875 80.489 123.92 80.5063 123.959 80.5318C123.999 80.5572 124.033 80.5902 124.059 80.6289L126.189 83.7168C126.281 83.853 126.342 84.0082 126.367 84.171C126.391 84.3338 126.379 84.5 126.331 84.6574C126.136 85.2076 125 86.1659 124.112 86.5209C123.893 86.6137 123.658 86.6619 123.42 86.6629Z" fill="#212529"/>
<path d="M123.172 86.6096C123.117 86.6083 123.063 86.5949 123.014 86.5703C122.965 86.5458 122.922 86.5107 122.888 86.4676L120.705 83.2909C120.678 83.2524 120.659 83.2091 120.649 83.1633C120.639 83.1175 120.638 83.0702 120.646 83.024C120.655 82.9779 120.672 82.9338 120.697 82.8944C120.722 82.8549 120.755 82.8208 120.794 82.794C120.832 82.7672 120.875 82.7482 120.921 82.7381C120.967 82.7281 121.014 82.7272 121.06 82.7354C121.107 82.7437 121.151 82.7609 121.19 82.7862C121.23 82.8114 121.264 82.8442 121.291 82.8827L123.473 86.0594C123.5 86.0989 123.518 86.1431 123.527 86.1897C123.535 86.2362 123.535 86.284 123.525 86.3303C123.515 86.3766 123.496 86.4205 123.469 86.4593C123.442 86.4981 123.407 86.5311 123.367 86.5563C123.308 86.5927 123.241 86.6112 123.172 86.6096Z" fill="#212529"/>
<path d="M92.0966 128.422C96.3701 128.422 99.8344 124.997 99.8344 120.773C99.8344 116.548 96.3701 113.124 92.0966 113.124C87.8232 113.124 84.3589 116.548 84.3589 120.773C84.3589 124.997 87.8232 128.422 92.0966 128.422Z" fill="#F8F9FA"/>
<path d="M92.1854 128.777H91.6175L88.352 128.386L90.9786 128.067V127.978L91.2803 128.013C93.0415 127.792 94.6605 126.933 95.8313 125.599C97.002 124.265 97.6432 122.548 97.6337 120.773C97.6337 116.975 95.1491 114.011 91.5997 113.585L88.6892 113.248L91.5997 112.893L91.7417 112.84C91.8779 112.789 92.0225 112.765 92.1676 112.769C93.2981 112.766 94.4163 113.003 95.4486 113.464C96.4808 113.925 97.4038 114.599 98.1566 115.443C98.9094 116.286 99.475 117.279 99.8162 118.357C100.157 119.435 100.266 120.573 100.136 121.696C99.9024 123.642 98.9652 125.437 97.5009 126.741C96.0366 128.045 94.1462 128.769 92.1854 128.777ZM94.7587 113.958C96.9593 115.324 98.3436 117.809 98.3436 120.773C98.3462 122.192 97.9732 123.586 97.2625 124.814C96.5519 126.042 95.5288 127.06 94.2973 127.765C95.1809 127.487 96.0053 127.048 96.7286 126.469C97.4787 125.879 98.1036 125.144 98.5667 124.31C99.0299 123.475 99.3221 122.556 99.4262 121.607C99.5474 120.583 99.4486 119.545 99.1364 118.563C98.8242 117.58 98.3059 116.676 97.616 115.91C96.8295 115.045 95.8508 114.376 94.7587 113.958Z" fill="#212529"/>
<path d="M91.7241 128.741H91.2981C87.2695 128.741 84.0041 125.156 84.0041 120.773C84.0041 116.389 87.2163 112.769 91.1739 112.769C91.4646 112.769 91.755 112.787 92.0435 112.822C95.6284 113.319 98.3437 116.726 98.3437 120.773C98.3437 124.819 95.6284 128.244 92.0435 128.723L91.7241 128.741ZM91.1739 113.479C87.6067 113.479 84.714 116.762 84.714 120.773C84.714 124.784 87.6777 128.031 91.2981 128.031H91.5643C91.6888 128.043 91.8142 128.037 91.937 128.014C95.1847 127.588 97.6338 124.464 97.6338 120.773C97.6338 117.081 95.1847 113.976 91.937 113.532C91.6842 113.497 91.4292 113.479 91.1739 113.479Z" fill="#212529"/>
<path d="M91.1735 126.647C88.263 126.647 85.9026 124.02 85.9026 120.773C85.9026 117.525 88.263 114.916 91.1735 114.916L91.8124 114.952C94.439 115.307 96.4267 117.809 96.4267 120.773C96.4267 123.736 94.439 126.239 91.8124 126.594C91.6013 126.629 91.3876 126.647 91.1735 126.647ZM91.1735 115.626C88.6534 115.626 86.6125 117.933 86.6125 120.773C86.6125 123.612 88.6534 125.937 91.1735 125.937L91.7059 125.902C93.9953 125.582 95.7168 123.381 95.7168 120.773C95.7168 118.164 93.9953 115.963 91.7059 115.662C91.5301 115.632 91.3517 115.62 91.1735 115.626Z" fill="#212529"/>
<path d="M98.5924 117.17H96.9952C96.9011 117.17 96.8108 117.133 96.7442 117.066C96.6776 117 96.6403 116.909 96.6403 116.815C96.6403 116.721 96.6776 116.631 96.7442 116.564C96.8108 116.498 96.9011 116.46 96.9952 116.46H98.5924C98.6866 116.46 98.7768 116.498 98.8434 116.564C98.91 116.631 98.9474 116.721 98.9474 116.815C98.9474 116.909 98.91 117 98.8434 117.066C98.7768 117.133 98.6866 117.17 98.5924 117.17Z" fill="#212529"/>
<path d="M99.2134 118.98H97.7049C97.6108 118.98 97.5205 118.943 97.4539 118.876C97.3873 118.81 97.3499 118.719 97.3499 118.625C97.3499 118.531 97.3873 118.441 97.4539 118.374C97.5205 118.308 97.6108 118.27 97.7049 118.27H99.2134C99.3075 118.27 99.3978 118.308 99.4644 118.374C99.5309 118.441 99.5683 118.531 99.5683 118.625C99.5683 118.719 99.5309 118.81 99.4644 118.876C99.3978 118.943 99.3075 118.98 99.2134 118.98Z" fill="#212529"/>
<path d="M99.8165 121.429H97.9886C97.8944 121.429 97.8042 121.392 97.7376 121.325C97.671 121.259 97.6336 121.169 97.6336 121.074C97.6336 120.98 97.671 120.89 97.7376 120.823C97.8042 120.757 97.8944 120.719 97.9886 120.719H99.8165C99.9107 120.719 100.001 120.757 100.068 120.823C100.134 120.89 100.171 120.98 100.171 121.074C100.171 121.169 100.134 121.259 100.068 121.325C100.001 121.392 99.9107 121.429 99.8165 121.429Z" fill="#212529"/>
<path d="M99.1064 123.985H97.4914C97.3973 123.985 97.307 123.948 97.2405 123.881C97.1739 123.815 97.1365 123.724 97.1365 123.63C97.1365 123.536 97.1739 123.446 97.2405 123.379C97.307 123.313 97.3973 123.275 97.4914 123.275H99.1064C99.2006 123.275 99.2908 123.313 99.3574 123.379C99.424 123.446 99.4614 123.536 99.4614 123.63C99.4614 123.724 99.424 123.815 99.3574 123.881C99.2908 123.948 99.2006 123.985 99.1064 123.985Z" fill="#212529"/>
<path d="M97.4916 126.611H95.9298C95.8357 126.611 95.7454 126.574 95.6788 126.508C95.6123 126.441 95.5749 126.351 95.5749 126.257C95.5749 126.162 95.6123 126.072 95.6788 126.006C95.7454 125.939 95.8357 125.902 95.9298 125.902H97.4916C97.5857 125.902 97.676 125.939 97.7425 126.006C97.8091 126.072 97.8465 126.162 97.8465 126.257C97.8465 126.351 97.8091 126.441 97.7425 126.508C97.676 126.574 97.5857 126.611 97.4916 126.611Z" fill="#212529"/>
<path d="M91.7415 124.375C91.2026 124.384 90.6746 124.223 90.233 123.914C89.3811 123.275 88.9552 121.997 88.9552 120.134C88.9729 118.537 89.3456 117.614 90.091 117.294C91.2446 116.797 92.7176 118.128 92.8773 118.27C92.9448 118.334 92.9844 118.422 92.9877 118.515C92.991 118.608 92.9578 118.699 92.895 118.767C92.8647 118.803 92.8273 118.832 92.7852 118.852C92.7431 118.872 92.6972 118.884 92.6505 118.885C92.6038 118.887 92.5572 118.879 92.5137 118.862C92.4703 118.844 92.4309 118.818 92.3981 118.785C92.0609 118.483 90.9961 117.685 90.375 117.951C89.7538 118.217 89.6828 118.909 89.6651 120.134C89.6651 121.767 89.9845 122.849 90.6589 123.328C91.3333 123.807 92.3804 123.63 93.0725 123.417C93.1167 123.401 93.1638 123.394 93.2108 123.397C93.2579 123.399 93.3038 123.412 93.3456 123.434C93.3874 123.456 93.4241 123.486 93.4535 123.523C93.4829 123.56 93.5043 123.602 93.5162 123.648C93.5326 123.692 93.5396 123.739 93.5367 123.786C93.5338 123.833 93.521 123.879 93.4993 123.921C93.4775 123.963 93.4473 123.999 93.4105 124.029C93.3736 124.058 93.3311 124.079 93.2855 124.091C92.789 124.267 92.2679 124.363 91.7415 124.375Z" fill="#212529"/>
<path d="M63.4353 108.279C63.4353 108.279 47.0015 110.746 47.5339 113.674C48.0663 116.602 49.2199 118.519 47.6582 121.749C46.8773 123.364 45.1736 125.44 44.7121 127.8C44.2507 130.161 45.2623 132.947 47.5339 134.828C52.0949 138.608 51.9707 141.554 73.1429 134.828C73.1429 134.828 80.6677 132.912 77.4377 126.665C74.2078 120.418 72.7525 123.31 75.663 114.898C75.663 114.898 76.9941 111.42 72.8058 111.988C72.8058 111.988 69.4693 112.13 68.4755 110.55C67.4816 108.971 66.7717 106.575 63.4353 108.279Z" fill="#F8F9FA"/>
<path d="M53.0355 124.446C53.0355 124.446 55.8041 117.756 57.8805 117.17C59.9569 116.584 72.788 112.893 73.6044 113.816C74.4208 114.739 73.2495 120.861 71.528 121.216C69.8065 121.571 58.0047 125.263 58.8211 126.186C59.6375 127.108 71.8652 123.878 73.0187 124.571C74.1723 125.263 77.2425 129.078 73.8706 133.107C70.4987 137.136 54.7748 139.993 53.3905 138.839C52.0062 137.686 46.2207 131.261 46.6821 129.309C47.1435 127.357 46.0964 125.174 48.1906 126.132C50.2848 127.091 51.7933 127.126 53.0355 124.446Z" fill="#212529"/>
<path d="M55.5732 139.389C53.4081 139.389 51.3672 139.052 50.2491 137.987C46.0076 133.977 42.6711 130.818 44.9782 125.99C47.1434 121.447 48.3324 119.335 48.3502 119.3C48.3722 119.259 48.4024 119.223 48.439 119.194C48.4755 119.165 48.5176 119.145 48.5626 119.133C48.6076 119.121 48.6545 119.119 48.7004 119.126C48.7463 119.134 48.7902 119.15 48.8293 119.176C48.9114 119.221 48.9724 119.296 48.999 119.386C49.0256 119.476 49.0156 119.572 48.9713 119.655C48.9536 119.672 47.7823 121.784 45.6171 126.292C43.452 130.8 46.5577 133.515 50.746 137.473C52.1658 138.822 56.0169 139.052 61.2878 138.076C68.5818 136.745 76.4438 133.533 77.4376 131.456C78.7864 128.706 76.852 126.15 75.2902 124.109C74.8616 123.571 74.4646 123.008 74.1012 122.423C73.409 121.234 74.0657 119.087 74.7046 116.993C75.2725 115.182 75.9114 113.106 75.2015 112.609C73.8172 111.615 65.3696 113.496 61.3055 114.402L59.2291 114.845C55.6265 115.608 52.3433 121.784 52.3078 121.838C52.2926 121.887 52.2668 121.933 52.232 121.972C52.1972 122.01 52.1544 122.041 52.1065 122.061C52.0586 122.081 52.0069 122.091 51.9549 122.089C51.903 122.087 51.8521 122.074 51.8059 122.05C51.7597 122.026 51.7192 121.992 51.6874 121.951C51.6556 121.91 51.6333 121.863 51.6219 121.812C51.6105 121.761 51.6104 121.709 51.6216 121.658C51.6328 121.607 51.655 121.559 51.6866 121.518C51.8286 121.252 55.1473 114.987 59.0872 114.153L61.1458 113.709C67.6412 112.254 74.1012 110.941 75.6097 112.023C76.7277 112.822 76.0711 114.952 75.379 117.206C74.8111 119.051 74.1722 121.145 74.7223 122.068C75.066 122.63 75.4454 123.17 75.8581 123.683C77.4376 125.76 79.6028 128.617 78.0765 131.758C76.8342 134.332 68.2979 137.526 61.412 138.786C59.8325 139.07 57.6496 139.389 55.5732 139.389Z" fill="#212529"/>
<path d="M49.7522 122.494C49.682 122.492 49.6137 122.472 49.5544 122.434C49.495 122.397 49.4469 122.344 49.415 122.281C49.0778 121.429 46.0963 113.993 48.4567 112.378C50.817 110.763 62.7608 108.208 63.5594 108.527C63.6041 108.543 63.6451 108.568 63.6801 108.6C63.7151 108.632 63.7433 108.67 63.7632 108.713C63.783 108.756 63.794 108.803 63.7956 108.85C63.7972 108.897 63.7893 108.945 63.7724 108.989C63.7317 109.068 63.6663 109.131 63.5863 109.17C63.5062 109.208 63.4158 109.219 63.3287 109.202C62.5123 109.113 50.9767 111.491 48.8648 112.964C47.4451 113.94 48.8471 119.016 50.0716 121.997C50.0921 122.039 50.1037 122.084 50.1057 122.131C50.1078 122.177 50.1002 122.223 50.0836 122.267C50.0669 122.31 50.0415 122.349 50.0089 122.383C49.9763 122.416 49.9373 122.442 49.8942 122.459L49.7522 122.494Z" fill="#212529"/>
<path d="M59.9565 107.942C58.7142 107.942 57.4364 107.64 56.6733 106.646C56.6168 106.571 56.5926 106.476 56.6059 106.383C56.6192 106.29 56.669 106.206 56.7443 106.149C56.7806 106.119 56.8229 106.096 56.8684 106.083C56.9139 106.07 56.9617 106.067 57.0086 106.074C57.0555 106.08 57.1004 106.097 57.1405 106.122C57.1806 106.147 57.2149 106.181 57.2412 106.22C58.7674 108.208 63.2752 106.646 63.3107 106.628C63.3549 106.611 63.4021 106.603 63.4494 106.605C63.4968 106.607 63.5433 106.618 63.5863 106.637C63.6293 106.657 63.6679 106.686 63.6998 106.721C63.7317 106.756 63.7563 106.797 63.7721 106.841C63.8016 106.931 63.796 107.028 63.7565 107.114C63.717 107.199 63.6464 107.267 63.5591 107.303C63.4349 107.338 61.7312 107.942 59.9565 107.942Z" fill="#212529"/>
<path d="M57.703 114.029C57.6174 114.032 57.5334 114.005 57.4665 113.951C57.3997 113.897 57.3545 113.821 57.3394 113.737C57.3242 113.652 57.3401 113.566 57.3841 113.492C57.4282 113.418 57.4973 113.363 57.5788 113.337C59.3712 112.68 63.666 111.189 64.5711 111.668H64.6244C64.9083 111.544 65.2633 110.621 65.4407 109.823C65.4619 109.735 65.516 109.658 65.5919 109.609C65.6678 109.559 65.7598 109.54 65.8489 109.557C65.9417 109.578 66.0228 109.634 66.0756 109.713C66.1284 109.792 66.1489 109.889 66.1329 109.982C66.0619 110.302 65.6715 111.97 64.9261 112.307C64.8183 112.362 64.6986 112.389 64.5778 112.386C64.4569 112.383 64.3388 112.35 64.2339 112.29C63.7548 112.077 60.5248 113.017 57.8095 114.011L57.703 114.029Z" fill="#212529"/>
<path d="M50.2134 125.831C51.2328 125.831 52.0591 125.004 52.0591 123.985C52.0591 122.965 51.2328 122.139 50.2134 122.139C49.1941 122.139 48.3677 122.965 48.3677 123.985C48.3677 125.004 49.1941 125.831 50.2134 125.831Z" fill="#212529"/>
<path d="M56.3011 107.001C57.3204 107.001 58.1468 106.175 58.1468 105.155C58.1468 104.136 57.3204 103.31 56.3011 103.31C55.2817 103.31 54.4554 104.136 54.4554 105.155C54.4554 106.175 55.2817 107.001 56.3011 107.001Z" fill="#212529"/>
<path d="M65.7773 110.124C66.7967 110.124 67.623 109.298 67.623 108.279C67.623 107.259 66.7967 106.433 65.7773 106.433C64.758 106.433 63.9316 107.259 63.9316 108.279C63.9316 109.298 64.758 110.124 65.7773 110.124Z" fill="#212529"/>
<path d="M62.5295 142.211L62.1568 141.785C61.8565 141.352 61.6453 140.863 61.5356 140.348C61.1275 138.378 62.1568 136 64.3042 134.456C66.4516 132.912 69.4331 132.592 71.1546 133.87C71.4537 134.095 71.7169 134.365 71.9354 134.669C72.0507 134.815 72.1461 134.976 72.2194 135.148C73.302 137.224 72.2904 140.17 69.8058 141.998C67.3212 143.826 64.18 143.862 62.5295 142.211Z" fill="#F8F9FA"/>
<path d="M65.7065 143.755C64.3755 143.755 63.151 143.329 62.2814 142.46C62.136 142.314 61.9997 142.16 61.8732 141.998C61.5864 141.587 61.3705 141.132 61.2343 140.65C61.2122 140.564 61.2174 140.473 61.2492 140.39C61.281 140.308 61.3378 140.237 61.4117 140.188C61.4823 140.133 61.5682 140.102 61.6573 140.099C61.7465 140.096 61.8344 140.121 61.9087 140.17C63.5591 141.253 66.1325 140.987 68.1734 139.496C70.2143 138.005 71.2081 135.822 70.7999 133.941L70.6047 133.036L71.3678 133.586C71.695 133.83 71.9823 134.124 72.2197 134.456C72.3391 134.625 72.4459 134.803 72.5392 134.988C73.7105 137.242 72.6101 140.383 70.0013 142.282C68.7589 143.21 67.2569 143.725 65.7065 143.755ZM62.1749 141.129C62.2636 141.271 62.3523 141.43 62.4588 141.572C62.5555 141.71 62.6623 141.841 62.7783 141.963C64.34 143.507 67.2683 143.4 69.5931 141.714C71.918 140.011 72.9118 137.26 71.918 135.308C71.8293 135.166 71.7583 135.024 71.6518 134.864L71.5986 134.811C71.5808 136.692 70.4628 138.715 68.5993 140.064C66.7359 141.413 64.0383 141.927 62.1749 141.129Z" fill="#212529"/>
<path d="M64.2869 141.555C63.2247 141.579 62.1838 141.255 61.3232 140.632L61.2167 140.543L61.1812 140.419C60.7375 138.271 61.9088 135.751 64.0917 134.154C66.2746 132.557 69.4691 132.184 71.368 133.586L71.4745 133.675V133.799C71.9359 135.947 70.7646 138.467 68.5817 140.064C67.2507 141.04 65.7067 141.555 64.2869 141.555ZM61.8556 140.135C63.5061 141.271 66.0794 141.022 68.1736 139.496C70.108 138.094 71.1551 135.929 70.8356 134.083C69.1851 132.947 66.6118 133.213 64.4999 134.74C62.388 136.266 61.5362 138.289 61.8556 140.135Z" fill="#212529"/>
<path d="M71.2969 139.23C71.2289 139.228 71.1626 139.208 71.1059 139.17C71.0493 139.132 71.0047 139.079 70.9775 139.017L70.2321 137.455C70.1921 137.368 70.1883 137.268 70.2216 137.179C70.2549 137.089 70.3225 137.016 70.4096 136.976C70.4966 136.936 70.596 136.932 70.6859 136.965C70.7758 136.999 70.8487 137.066 70.8887 137.153L71.6164 138.715C71.6534 138.802 71.6557 138.901 71.6227 138.99C71.5897 139.079 71.524 139.152 71.4389 139.194L71.2969 139.23Z" fill="#212529"/>
<path d="M69.5403 140.738C69.4772 140.735 69.416 140.716 69.363 140.682C69.3099 140.647 69.267 140.599 69.2386 140.543L68.653 139.496C68.6282 139.454 68.6122 139.408 68.606 139.36C68.5997 139.312 68.6034 139.263 68.6167 139.217C68.6299 139.17 68.6526 139.127 68.6833 139.089C68.714 139.052 68.752 139.021 68.795 138.999C68.8782 138.959 68.9733 138.952 69.0619 138.978C69.1504 139.004 69.226 139.062 69.2741 139.141L69.8598 140.206C69.9041 140.288 69.914 140.385 69.8874 140.475C69.8608 140.564 69.7999 140.64 69.7178 140.685C69.6657 140.721 69.6036 140.74 69.5403 140.738Z" fill="#212529"/>
<path d="M66.4342 142.619C66.3676 142.622 66.3017 142.605 66.2449 142.57C66.188 142.535 66.1427 142.485 66.1147 142.424L65.4581 141.164C65.4157 141.079 65.4088 140.981 65.4387 140.891C65.4687 140.802 65.5331 140.727 65.6178 140.685C65.7025 140.643 65.8006 140.636 65.8905 140.666C65.9803 140.695 66.0546 140.76 66.097 140.845L66.7359 142.105C66.7802 142.187 66.7901 142.284 66.7635 142.373C66.7369 142.463 66.676 142.539 66.5939 142.584L66.4342 142.619Z" fill="#212529"/>
<path d="M63.5772 140.064C63.2933 140.064 62.7964 139.939 62.6189 139.514C62.4414 139.088 62.9206 137.81 64.4646 136.284C66.0086 134.757 67.3041 134.03 68.3334 134.118C68.5299 134.126 68.7226 134.175 68.8996 134.26C69.0767 134.346 69.2343 134.467 69.3628 134.615C69.413 134.694 69.4318 134.789 69.4153 134.881C69.3989 134.973 69.3485 135.056 69.274 135.112C69.2 135.163 69.1094 135.184 69.0205 135.171C68.9315 135.158 68.8509 135.112 68.7949 135.041C68.6464 134.901 68.4489 134.825 68.2447 134.828C67.7833 134.793 66.754 135.024 64.9615 136.781C63.169 138.537 63.24 139.176 63.2755 139.23C63.311 139.283 63.524 139.354 63.5772 139.354H63.595C63.6849 139.358 63.7703 139.394 63.8356 139.456C63.9008 139.518 63.9414 139.601 63.9499 139.691C63.946 139.786 63.9078 139.876 63.8425 139.944C63.7773 140.013 63.6893 140.055 63.595 140.064H63.5772Z" fill="#212529"/>
<path d="M119.977 141.058C119.983 140.791 119.971 140.524 119.942 140.259C119.87 139.51 119.627 138.787 119.232 138.147C117.794 135.698 114.422 134.19 110.695 134.598C106.667 135.024 103.525 137.562 102.94 140.543C102.842 141.064 102.824 141.596 102.887 142.123C102.907 142.387 102.954 142.649 103.029 142.903C103.898 146.116 107.767 148.263 112.133 147.784C116.499 147.305 119.817 144.394 119.977 141.058Z" fill="#F8F9FA"/>
<path d="M110.926 148.21C106.951 148.21 103.526 146.098 102.691 142.992C102.618 142.718 102.564 142.439 102.532 142.158C102.473 141.656 102.485 141.148 102.567 140.649C102.581 140.565 102.621 140.487 102.681 140.426C102.742 140.366 102.82 140.326 102.904 140.312C102.985 140.295 103.069 140.303 103.145 140.335C103.221 140.367 103.286 140.421 103.33 140.49C104.786 142.815 108.033 144.128 111.459 143.755C115.203 143.347 118.256 141.058 118.877 138.183C118.89 138.103 118.928 138.029 118.986 137.972C119.043 137.915 119.116 137.877 119.196 137.863C119.276 137.854 119.356 137.868 119.428 137.902C119.501 137.937 119.562 137.991 119.604 138.058C119.982 138.724 120.218 139.462 120.297 140.223C120.326 140.506 120.338 140.791 120.332 141.075C120.155 144.625 116.658 147.642 112.168 148.139C111.76 148.174 111.334 148.21 110.926 148.21ZM103.206 141.537C103.206 141.714 103.206 141.892 103.224 142.069C103.242 142.247 103.313 142.584 103.366 142.815C104.2 145.903 107.945 147.89 112.097 147.429C116.232 146.985 119.462 144.234 119.622 141.04C119.627 140.791 119.615 140.542 119.587 140.294C119.551 139.9 119.461 139.511 119.32 139.141C118.291 141.927 115.221 144.057 111.53 144.447C108.193 144.82 104.945 143.666 103.206 141.537Z" fill="#212529"/>
<path d="M110.305 144.518C107.004 144.518 104.023 143.081 102.639 140.72L102.568 140.614L102.603 140.472C103.224 137.26 106.543 134.686 110.66 134.243C114.423 133.835 117.99 135.325 119.552 137.97L119.605 138.076V138.218C118.984 141.448 115.665 144.004 111.548 144.447C111.136 144.498 110.721 144.522 110.305 144.518ZM103.331 140.49C104.768 142.815 108.016 144.128 111.459 143.755C115.204 143.347 118.238 141.075 118.86 138.218C117.422 135.876 114.174 134.58 110.731 134.953C106.987 135.361 103.952 137.615 103.331 140.49Z" fill="#212529"/>
<path d="M107.217 147.216C107.131 147.217 107.048 147.187 106.983 147.131C106.918 147.076 106.875 146.999 106.862 146.914L106.507 143.631C106.499 143.585 106.501 143.538 106.513 143.494C106.524 143.449 106.544 143.407 106.573 143.37C106.601 143.333 106.637 143.303 106.677 143.281C106.718 143.258 106.762 143.245 106.809 143.24C106.855 143.236 106.902 143.24 106.947 143.253C106.992 143.267 107.034 143.289 107.07 143.319C107.107 143.348 107.137 143.385 107.159 143.426C107.181 143.468 107.195 143.513 107.199 143.56L107.572 146.825C107.577 146.872 107.572 146.919 107.559 146.964C107.545 147.009 107.523 147.051 107.493 147.087C107.464 147.124 107.427 147.154 107.386 147.176C107.344 147.198 107.299 147.211 107.252 147.216H107.217Z" fill="#212529"/>
<path d="M110.855 147.855C110.767 147.855 110.682 147.823 110.616 147.764C110.55 147.704 110.509 147.623 110.5 147.535L110.092 144.217C110.086 144.121 110.115 144.027 110.174 143.952C110.233 143.877 110.318 143.826 110.411 143.808C110.458 143.803 110.505 143.808 110.55 143.821C110.595 143.835 110.637 143.857 110.673 143.887C110.71 143.916 110.74 143.953 110.762 143.994C110.784 144.036 110.798 144.081 110.802 144.128L111.21 147.464C111.215 147.511 111.211 147.558 111.197 147.603C111.184 147.648 111.162 147.69 111.132 147.726C111.102 147.762 111.066 147.792 111.024 147.815C110.983 147.837 110.937 147.85 110.891 147.855H110.855Z" fill="#212529"/>
<path d="M116.108 146.896C116.025 146.898 115.944 146.871 115.879 146.819C115.814 146.767 115.77 146.694 115.753 146.612L115.061 142.974C115.045 142.88 115.065 142.784 115.118 142.705C115.171 142.626 115.252 142.57 115.345 142.548C115.436 142.533 115.531 142.554 115.607 142.607C115.683 142.66 115.736 142.741 115.753 142.832L116.463 146.488C116.478 146.58 116.457 146.674 116.404 146.75C116.351 146.827 116.27 146.879 116.179 146.896H116.108Z" fill="#212529"/>
<path d="M106.046 139.904C105.957 139.904 105.872 139.872 105.806 139.813C105.741 139.754 105.7 139.672 105.691 139.585C105.673 139.514 105.62 138.875 106.241 138.218C107.217 137.171 109.24 136.692 112.275 136.834C115.31 136.976 116.836 137.455 117.155 138.36C117.368 138.928 116.96 139.478 116.694 139.709C116.622 139.757 116.535 139.777 116.449 139.766C116.363 139.754 116.285 139.712 116.228 139.647C116.171 139.581 116.14 139.497 116.141 139.411C116.142 139.324 116.174 139.241 116.232 139.176C116.232 139.176 116.587 138.857 116.481 138.591C116.374 138.325 115.895 137.686 112.239 137.544C108.583 137.402 107.359 138.076 106.791 138.679C106.223 139.283 106.401 139.496 106.401 139.514C106.406 139.607 106.376 139.699 106.317 139.771C106.258 139.843 106.174 139.891 106.081 139.904H106.046Z" fill="#212529"/>
<path d="M74.7932 80.6999C73.2492 80.6999 72.3973 79.6706 72.0069 78.9607C71.581 79.4576 70.7114 80.061 69.0609 79.8835C66.7538 79.6173 66.2569 77.5587 66.1681 76.5293C65.5115 76.7955 64.1982 77.2392 63.0979 76.3519C62.2638 75.6775 61.9621 74.6481 62.2638 73.4946C61.3409 73.6011 59.7082 73.3881 58.7143 72.3055C57.7205 71.223 57.6673 70.1936 58.04 68.6141C57.1526 68.7916 56.141 68.8094 55.7151 68.2414C55.2892 67.6735 55.5021 67.1944 55.999 66.3958L56.6024 66.7684C56.141 67.5138 56.2475 67.7623 56.283 67.8155C56.3185 67.8688 57.0816 68.1172 58.1997 67.851C58.2851 67.8337 58.3734 67.8375 58.457 67.8623C58.5405 67.887 58.6167 67.9319 58.6789 67.993C58.737 68.0603 58.7786 68.1403 58.8002 68.2266C58.8218 68.313 58.8227 68.4031 58.8031 68.4899C58.3949 69.9629 58.5546 71.081 59.229 71.8264C59.9034 72.5717 61.6781 72.8912 62.2993 72.7847C62.4011 72.7589 62.5081 72.7618 62.6083 72.7931C62.7086 72.8244 62.7982 72.883 62.8672 72.9622C62.9355 73.0414 62.9828 73.1367 63.0045 73.239C63.0262 73.3414 63.0217 73.4476 62.9914 73.5478C62.7962 74.2045 62.7252 75.1273 63.5416 75.8017C64.3579 76.4761 65.405 76.1034 66.1149 75.7662L66.1859 75.7307C66.2564 75.697 66.3346 75.6826 66.4125 75.6888C66.4904 75.695 66.5653 75.7217 66.6295 75.7662C66.6953 75.8093 66.7502 75.867 66.7902 75.9346C66.8302 76.0023 66.8542 76.0783 66.8603 76.1566C66.878 76.7955 67.091 78.9429 69.1319 79.1736C70.7291 79.3511 71.3858 78.6945 71.6342 78.2863C71.6782 78.2093 71.7434 78.1465 71.8221 78.1056C71.9008 78.0647 71.9896 78.0473 72.0779 78.0556C72.162 78.0564 72.2439 78.0822 72.3134 78.1296C72.3829 78.1769 72.4368 78.2438 72.4683 78.3218C72.7168 78.8542 73.4267 80.0787 74.9529 79.99C76.4792 79.9013 76.7986 79.0317 76.9406 78.4993C76.9589 78.4168 77.0003 78.3412 77.06 78.2815C77.1198 78.2218 77.1953 78.1803 77.2778 78.1621C77.3632 78.1447 77.4515 78.1486 77.5351 78.1733C77.6186 78.1981 77.6948 78.243 77.757 78.304C78.2716 78.8897 79.6559 80.1497 81.3241 79.1736C82.9923 78.1976 82.6019 77.3634 82.247 76.6713C82.205 76.5824 82.1894 76.4833 82.202 76.3858C82.2146 76.2883 82.2548 76.1965 82.318 76.1211C82.3868 76.0537 82.4738 76.0077 82.5683 75.9888C82.6629 75.9699 82.7609 75.9789 82.8504 76.0147C83.6667 76.3341 85.5479 76.6358 86.0626 76.0324C86.5772 75.429 85.8851 73.8673 85.6189 73.4413C85.5783 73.3689 85.5541 73.2885 85.548 73.2057C85.5419 73.1229 85.554 73.0398 85.5834 72.9622C85.6176 72.8862 85.6691 72.8194 85.7339 72.767C85.7986 72.7146 85.8747 72.6781 85.9561 72.6605C86.4708 72.554 88.1567 72.1103 88.7424 70.9213C89.0618 70.2469 88.9908 69.4128 88.5294 68.4544C88.4804 68.3591 88.4595 68.2518 88.4689 68.145C88.4783 68.0382 88.5177 67.9363 88.5827 67.851C88.6503 67.764 88.7412 67.6978 88.8448 67.6602C88.9484 67.6225 89.0606 67.6148 89.1683 67.638C89.8427 67.7623 91.4577 67.9752 91.6352 67.0524L92.3273 67.1944C92.1143 68.2414 91.014 68.6674 89.2748 68.3657C89.7362 69.4482 89.7717 70.4066 89.3813 71.223C88.7424 72.5185 87.1984 73.0864 86.3643 73.2994C86.7902 74.0802 87.4291 75.5532 86.6127 76.4938C85.7964 77.4344 84.0217 77.0972 83.0633 76.831C83.294 77.5764 83.3295 78.8364 81.6791 79.7948C80.0286 80.7531 78.2184 79.7593 77.4907 79.0672C77.2245 79.7061 76.5679 80.6112 74.9884 80.6999H74.7932Z" fill="#212529"/>
<path d="M51.0831 61.9589C50.2472 61.9396 49.4271 61.727 48.6872 61.3377L48.6162 61.3022C48.543 61.2763 48.4797 61.2282 48.4351 61.1646C48.3906 61.1009 48.367 61.025 48.3678 60.9473C48.3678 60.8531 48.4051 60.7629 48.4717 60.6963C48.5383 60.6297 48.6286 60.5923 48.7227 60.5923C48.8308 60.6009 48.9348 60.6376 49.0244 60.6988C51.3315 61.8879 53.4612 61.1247 55.1826 58.4804C55.2079 58.4404 55.2408 58.4057 55.2797 58.3786C55.3185 58.3515 55.3623 58.3324 55.4086 58.3225C55.4549 58.3125 55.5028 58.312 55.5493 58.3208C55.5958 58.3297 55.6401 58.3477 55.6795 58.3739C55.7176 58.3989 55.7503 58.4313 55.7755 58.4692C55.8007 58.5072 55.818 58.5498 55.8263 58.5946C55.8346 58.6394 55.8337 58.6853 55.8237 58.7298C55.8138 58.7742 55.7949 58.8162 55.7683 58.8531C54.455 60.9118 52.84 61.9589 51.0831 61.9589Z" fill="#F8F9FA"/>
<path d="M109.329 104.658H109.276C109.183 104.641 109.101 104.589 109.045 104.514C108.989 104.438 108.964 104.344 108.974 104.25C109.027 104.002 112.719 78.3039 107.146 71.2228C107.111 71.1874 104.307 67.6024 102.851 66.5554C101.822 65.81 101.858 64.3547 102.461 63.4319C103.064 62.509 103.969 62.2961 104.875 62.8285C104.915 62.8505 104.951 62.8807 104.98 62.9173C105.009 62.9538 105.03 62.9959 105.041 63.0409C105.053 63.0859 105.055 63.1328 105.048 63.1787C105.041 63.2246 105.024 63.2685 104.999 63.3077C104.951 63.3867 104.874 63.4439 104.784 63.4671C104.695 63.4903 104.6 63.4777 104.52 63.4319C103.721 62.9705 103.224 63.5384 103.047 63.8046C102.621 64.479 102.603 65.5083 103.26 65.9697C104.804 67.0878 107.59 70.6372 107.696 70.7792C113.464 78.1087 109.844 103.292 109.684 104.357C109.671 104.441 109.628 104.518 109.563 104.574C109.498 104.629 109.415 104.659 109.329 104.658Z" fill="#212529"/>
</svg>
